<?xml version="1.0" encoding="iso-8859-1"?>
<!-- Generator: Adobe Illustrator 19.0.0, SVG Export Plug-In . SVG Version: 6.00 Build 0)  -->
<svg xmlns="http://www.w3.org/2000/svg" xmlns:xlink="http://www.w3.org/1999/xlink" version="1.1" id="Layer_1" x="0px" y="0px" viewBox="0 0 512 512" style="enable-background:new 0 0 512 512;" xml:space="preserve" width="16px" height="16px">
<g>
	<g>
		<path d="M418.177,179.2c-9.6,0-18.466,3.183-25.6,8.55v-8.55c0-23.526-19.14-42.667-42.667-42.667c-9.6,0-18.466,3.183-25.6,8.55    V42.667C324.31,19.14,305.17,0,281.644,0c-23.526,0-42.667,19.14-42.667,42.667v85.35c-7.134-5.367-16-8.55-25.6-8.55    c-23.526,0-42.667,19.14-42.667,42.667v74.863c-19.029-32.384-62.643-49.289-95.514-36.932c-3.661,1.374-7.236,3.277-11.605,6.153    c-12.792,8.482-12.45,18.91-12.211,22.699c-0.828,4.634,0.128,5.734,11.785,19.208c15.053,17.391,46.379,53.572,66.142,89.148    c0.734,1.186,13.158,21.265,29.679,42.82c8.508,5.009,18.756,10.726,27.887,15.821c18.449,10.274,34.372,19.157,40.465,24.175    c3.644,2.987,4.156,8.363,1.152,12.006c-1.681,2.048-4.122,3.106-6.588,3.106c-1.911,0-3.823-0.64-5.419-1.954    c-4.83-3.959-21.922-13.517-37.239-22.05v15.556c0,47.01,38.238,85.248,85.248,85.248h85.419    c36.984,0,75.119-30.694,83.277-67.021c0.998-4.489,2.185-8.397,3.465-11.785c-17.886,5.99-33.058,10.18-33.399,10.266    c-0.717,0.188-1.442,0.273-2.15,0.273c-3.789,0-7.253-2.543-8.252-6.391c-1.178-4.557,1.553-9.216,6.118-10.402    c14.003-3.635,34.278-10.24,51.089-16.666c5.905-12.314,10.786-29.986,10.786-51.874V221.867    C460.844,198.34,441.703,179.2,418.177,179.2z" fill="#f2f2f2"/>
	</g>
</g>
<g>
</g>
<g>
</g>
<g>
</g>
<g>
</g>
<g>
</g>
<g>
</g>
<g>
</g>
<g>
</g>
<g>
</g>
<g>
</g>
<g>
</g>
<g>
</g>
<g>
</g>
<g>
</g>
<g>
</g>
</svg>
