<?xml version="1.0" encoding="iso-8859-1"?>
<!-- Generator: Adobe Illustrator 18.0.0, SVG Export Plug-In . SVG Version: 6.00 Build 0)  -->
<!DOCTYPE svg PUBLIC "-//W3C//DTD SVG 1.1//EN" "http://www.w3.org/Graphics/SVG/1.1/DTD/svg11.dtd">
<svg xmlns="http://www.w3.org/2000/svg" xmlns:xlink="http://www.w3.org/1999/xlink" version="1.1" id="Capa_1" x="0px" y="0px" viewBox="0 0 297 297" style="enable-background:new 0 0 297 297;" xml:space="preserve" width="16px" height="16px">
<g>
	<path d="M218.888,208.939c-0.265-2.301,0.48-4.604,2.044-6.314l11.236-12.285l-16.237-3.294c-2.281-0.462-4.248-1.896-5.387-3.927   l-8.096-14.436l-8.092,14.435c-1.139,2.031-3.106,3.465-5.388,3.928l-16.239,3.294l11.234,12.286   c1.563,1.709,2.309,4.011,2.044,6.311l-1.898,16.524l14.993-6.898c1.061-0.488,2.202-0.732,3.344-0.732s2.282,0.244,3.343,0.732   l15,6.899L218.888,208.939z" fill="#f2f2f2"/>
	<path d="M90.749,109h115.5c5.523,0,10-4.478,10-10V49.5c0-5.522-4.477-10-10-10h-15.924c-4.519-18.904-21.558-33-41.826-33   c-20.268,0-37.308,14.096-41.826,33H90.749c-5.522,0-10,4.478-10,10V99C80.749,104.522,85.227,109,90.749,109z M148.499,41.416   c4.465,0,8.083,3.619,8.083,8.084s-3.618,8.084-8.083,8.084c-4.465,0-8.083-3.619-8.083-8.084S144.034,41.416,148.499,41.416z" fill="#f2f2f2"/>
	<path d="M266,72.5h-35.751V99c0,13.233-10.767,24-24,24h-115.5c-13.233,0-24-10.767-24-24V72.5H31c-17.094,0-31,13.906-31,31v156   c0,17.094,13.906,31,31,31h235c17.094,0,31-13.906,31-31v-156C297,86.406,283.094,72.5,266,72.5z M115.499,242.008h-66   c-4.418,0-8-3.582-8-8s3.582-8,8-8h66c4.418,0,8,3.582,8,8S119.917,242.008,115.499,242.008z M115.499,209.008h-66   c-4.418,0-8-3.582-8-8s3.582-8,8-8h66c4.418,0,8,3.582,8,8S119.917,209.008,115.499,209.008z M115.499,176.008h-66   c-4.418,0-8-3.582-8-8s3.582-8,8-8h66c4.418,0,8,3.582,8,8S119.917,176.008,115.499,176.008z M247.655,197.555   c-0.13,0-0.256-0.016-0.385-0.02l-12.071,13.197l2.276,19.787c3.644,1.982,6.126,5.858,6.126,10.309   c0,6.459-5.226,11.714-11.648,11.714c-5.704,0-10.454-4.148-11.448-9.599l-18.059-8.307l-18.053,8.307   c-0.994,5.451-5.743,9.599-11.447,9.599c-6.425,0-11.651-5.255-11.651-11.714c0-4.45,2.482-8.327,6.128-10.309l2.273-19.787   l-11.392-12.458c-0.128,0.004-0.254,0.02-0.383,0.02c-6.423,0-11.647-5.254-11.647-11.712c0-6.459,5.225-11.714,11.647-11.714   c1.783,0,3.467,0.417,4.98,1.141l19.292-3.914l9.623-17.166c-0.647-1.456-1.015-3.063-1.015-4.759   c0-6.458,5.224-11.712,11.645-11.712c6.425,0,11.651,5.254,11.651,11.712c0,1.697-0.368,3.307-1.018,4.764l9.625,17.161   l18.804,3.814c1.786-1.122,3.889-1.782,6.146-1.782c6.423,0,11.648,5.255,11.648,11.715   C259.304,192.301,254.078,197.555,247.655,197.555z" fill="#f2f2f2"/>
</g>
<g>
</g>
<g>
</g>
<g>
</g>
<g>
</g>
<g>
</g>
<g>
</g>
<g>
</g>
<g>
</g>
<g>
</g>
<g>
</g>
<g>
</g>
<g>
</g>
<g>
</g>
<g>
</g>
<g>
</g>
</svg>
