<?xml version="1.0" encoding="iso-8859-1"?>
<!-- Generator: Adobe Illustrator 19.0.0, SVG Export Plug-In . SVG Version: 6.00 Build 0)  -->
<svg xmlns="http://www.w3.org/2000/svg" xmlns:xlink="http://www.w3.org/1999/xlink" version="1.1" id="Capa_1" x="0px" y="0px" viewBox="0 0 489.6 489.6" style="enable-background:new 0 0 489.6 489.6;" xml:space="preserve" width="16px" height="16px">
<g>
	<g>
		<g>
			<path d="M200.9,394c108.8,0,197-88.2,197-197S309.7,0,200.9,0S3.9,88.2,3.9,197S92.1,394,200.9,394z M279,197     c0,43.1-35,78.1-78.1,78.1s-78.1-35-78.1-78.1s35-78.1,78.1-78.1C244,118.9,279,153.9,279,197z M43.5,206.7     c-5.4,0-10.1-4.3-10.1-10.1c0-92.1,75-167.5,167.5-167.5c5.4,0,10.1,4.3,10.1,10.1s-4.3,10.1-10.1,10.1     c-81.2,0-147.3,66.1-147.3,147.3C53.2,202.4,49,206.7,43.5,206.7z" fill="#f2f2f2"/>
			<path d="M485.7,158.5c0-20.2-16.3-36.9-36.9-36.9c-20.2,0-36.9,16.3-36.9,36.9c0,20.2,16.3,36.9,36.9,36.9c0.8,0,1.6,0,2.3,0     C462,400.6,385,444.1,369.9,451.1v-17.5h-338v56H370v-18.3c0.8,0,115.8-23.2,101-283.3C479.9,181.5,485.7,170.6,485.7,158.5z" fill="#f2f2f2"/>
		</g>
	</g>
</g>
<g>
</g>
<g>
</g>
<g>
</g>
<g>
</g>
<g>
</g>
<g>
</g>
<g>
</g>
<g>
</g>
<g>
</g>
<g>
</g>
<g>
</g>
<g>
</g>
<g>
</g>
<g>
</g>
<g>
</g>
</svg>
